<svg xmlns="http://www.w3.org/2000/svg" viewBox="0 0 1200 630" font-family="ui-sans-serif, system-ui, sans-serif">
  <defs>
    <radialGradient id="glow" cx="78%" cy="40%" r="55%">
      <stop offset="0%" stop-color="#38bdf8" stop-opacity="0.22" />
      <stop offset="100%" stop-color="#38bdf8" stop-opacity="0" />
    </radialGradient>
    <pattern id="grid" width="48" height="48" patternUnits="userSpaceOnUse">
      <path d="M48 0H0V48" fill="none" stroke="#ffffff" stroke-opacity="0.03" />
    </pattern>
    <linearGradient id="ink" x1="0" y1="0" x2="0" y2="1">
      <stop offset="0%" stop-color="#ffffff" />
      <stop offset="100%" stop-color="#7dd3fc" />
    </linearGradient>
  </defs>

  <rect width="1200" height="630" fill="#0c0d0f" />
  <rect width="1200" height="630" fill="url(#grid)" />
  <rect width="1200" height="630" fill="url(#glow)" />

  <!-- brand: constellation mark + wordmark -->
  <g transform="translate(80 80)">
    <svg width="54" height="54" viewBox="0 0 132 132" fill="none">
      <path d="M30 46l68-16 4 66-60 6z m68-16l-56 72" stroke="#38bdf8" stroke-width="9"
            stroke-linecap="round" stroke-linejoin="round" />
      <circle cx="30" cy="46" r="10" fill="#38bdf8" />
      <circle cx="98" cy="30" r="10" fill="#38bdf8" />
      <circle cx="102" cy="96" r="10" fill="#38bdf8" />
      <circle cx="42" cy="102" r="10" fill="#38bdf8" />
    </svg>
    <text x="70" y="38" font-size="34" font-weight="700" fill="#ffffff" letter-spacing="-0.5">Rigel</text>
  </g>

  <!-- decorative star rings -->
  <g transform="translate(940 330)" fill="none" stroke="#38bdf8" stroke-opacity="0.25">
    <circle r="200" />
    <circle r="140" stroke-opacity="0.18" />
    <circle r="80" stroke-opacity="0.14" />
    <circle r="10" fill="#38bdf8" stroke="none" />
  </g>

  <text x="80" y="322" font-size="74" font-weight="700" fill="url(#ink)" letter-spacing="-2.5">
    Run production Kubernetes
  </text>
  <text x="80" y="406" font-size="74" font-weight="700" fill="#a1a1aa" letter-spacing="-2.5">
    without an ops team.
  </text>

  <text x="82" y="476" font-size="27" fill="#a1a1aa">
    AI-native Kubernetes you self-host — it diagnoses, watches,
  </text>
  <text x="82" y="512" font-size="27" fill="#a1a1aa">
    and fixes your cluster, with your approval.
  </text>

  <g transform="translate(82 548)">
    <rect width="196" height="46" rx="9" fill="#38bdf8" />
    <text x="98" y="30" font-size="20" font-weight="700" fill="#0a0a0a" text-anchor="middle">Get started →</text>
  </g>
</svg>
